<?xml version="1.0"?>
<svg xmlns="http://www.w3.org/2000/svg" xmlns:xlink="http://www.w3.org/1999/xlink" xmlns:svgjs="http://svgjs.com/svgjs" version="1.1" width="512" height="512" x="0" y="0" viewBox="0 0 32 32" style="enable-background:new 0 0 512 512" xml:space="preserve" className=""><g><title xmlns="http://www.w3.org/2000/svg"/><g xmlns="http://www.w3.org/2000/svg" id="Layer_2" data-name="Layer 2"><path d="m11.3 7.481a2 2 0 0 0 -2.82.217l-6 7a2 2 0 0 0 0 2.6l6 7a2 2 0 1 0 3.037-2.6l-4.883-5.698 4.885-5.7a2 2 0 0 0 -.219-2.819z" fill="#ffffff" data-original="#000000" className=""/><path d="m29.518 14.7-6-7a2 2 0 1 0 -3.037 2.6l4.885 5.7-4.885 5.7a2 2 0 0 0 3.037 2.6l6-7a2 2 0 0 0 0-2.6z" fill="#ffffff" data-original="#000000" className=""/><path d="m17.283 7.021a2 2 0 0 0 -2.263 1.7l-2 14a2 2 0 0 0 1.7 2.262 1.973 1.973 0 0 0 .28.017 2 2 0 0 0 1.978-1.717l2-14a2 2 0 0 0 -1.695-2.262z" fill="#ffffff" data-original="#000000" className=""/></g></g></svg>
